<svg id="visual" viewBox="0 0 16 16" width="16" height="16" xmlns="http://www.w3.org/2000/svg" xmlns:xlink="http://www.w3.org/1999/xlink" version="1.1"><path d="M0 2L1 2L1 2L3 2L3 3L4 3L4 3L6 3L6 4L7 4L7 4L9 4L9 3L10 3L10 4L12 4L12 3L13 3L13 3L15 3L15 4L16 4L16 3L16 0L16 0L15 0L15 0L13 0L13 0L12 0L12 0L10 0L10 0L9 0L9 0L7 0L7 0L6 0L6 0L4 0L4 0L3 0L3 0L1 0L1 0L0 0Z" fill="#fa7268"></path><path d="M0 8L1 8L1 5L3 5L3 6L4 6L4 10L6 10L6 7L7 7L7 6L9 6L9 9L10 9L10 11L12 11L12 9L13 9L13 7L15 7L15 8L16 8L16 6L16 1L16 2L15 2L15 1L13 1L13 1L12 1L12 2L10 2L10 1L9 1L9 2L7 2L7 2L6 2L6 1L4 1L4 1L3 1L3 0L1 0L1 0L0 0Z" fill="#ea5e66"></path><path d="M0 11L1 11L1 12L3 12L3 12L4 12L4 14L6 14L6 11L7 11L7 11L9 11L9 12L10 12L10 14L12 14L12 13L13 13L13 10L15 10L15 13L16 13L16 12L16 4L16 6L15 6L15 5L13 5L13 7L12 7L12 9L10 9L10 7L9 7L9 4L7 4L7 5L6 5L6 8L4 8L4 4L3 4L3 3L1 3L1 6L0 6Z" fill="#d84a64"></path><path d="M0 14L1 14L1 13L3 13L3 14L4 14L4 16L6 16L6 13L7 13L7 13L9 13L9 15L10 15L10 15L12 15L12 15L13 15L13 13L15 13L15 14L16 14L16 14L16 10L16 11L15 11L15 8L13 8L13 11L12 11L12 12L10 12L10 10L9 10L9 9L7 9L7 9L6 9L6 12L4 12L4 10L3 10L3 10L1 10L1 9L0 9Z" fill="#c53762"></path><path d="M0 17L1 17L1 17L3 17L3 17L4 17L4 17L6 17L6 17L7 17L7 17L9 17L9 17L10 17L10 17L12 17L12 17L13 17L13 17L15 17L15 17L16 17L16 17L16 12L16 12L15 12L15 11L13 11L13 13L12 13L12 13L10 13L10 13L9 13L9 11L7 11L7 11L6 11L6 14L4 14L4 12L3 12L3 11L1 11L1 12L0 12Z" fill="#b0235f"></path></svg>